<svg width="19" height="32" viewBox="0 0 19 32" fill="none" xmlns="http://www.w3.org/2000/svg">
<path d="M6.7 16L17.425 26.7249C17.9292 27.2291 18.1813 27.8708 18.1813 28.65C18.1813 29.4291 17.9292 30.0708 17.425 30.5749C16.9208 31.0791 16.2792 31.3312 15.5 31.3312C14.7208 31.3312 14.0792 31.0791 13.575 30.5749L0.925 17.9249C0.65 17.65 0.455667 17.352 0.342 17.0312C0.228334 16.7104 0.170584 16.3666 0.168751 16C0.166918 15.6333 0.224667 15.2895 0.342 14.9687C0.459334 14.6479 0.653667 14.35 0.925 14.075L13.575 1.42495C14.0792 0.920783 14.7208 0.668701 15.5 0.668701C16.2792 0.668701 16.9208 0.920783 17.425 1.42495C17.9292 1.92912 18.1813 2.57078 18.1813 3.34995C18.1813 4.12912 17.9292 4.77078 17.425 5.27495L6.7 16Z" fill="#1B7A6D"/>
</svg>
