<svg width="9" height="42" viewBox="0 0 9 42" fill="none" xmlns="http://www.w3.org/2000/svg">
<path d="M0.699951 37.325C0.699951 36.2309 1.13455 35.1817 1.90814 34.4081C2.68172 33.6345 3.73093 33.2 4.82495 33.2C5.91897 33.2 6.96818 33.6345 7.74177 34.4081C8.51535 35.1817 8.94995 36.2309 8.94995 37.325C8.94995 38.419 8.51535 39.4682 7.74177 40.2418C6.96818 41.0154 5.91897 41.45 4.82495 41.45C3.73093 41.45 2.68172 41.0154 1.90814 40.2418C1.13455 39.4682 0.699951 38.419 0.699951 37.325ZM0.699951 20.825C0.699951 19.7309 1.13455 18.6817 1.90814 17.9081C2.68172 17.1345 3.73093 16.7 4.82495 16.7C5.91897 16.7 6.96818 17.1345 7.74177 17.9081C8.51535 18.6817 8.94995 19.7309 8.94995 20.825C8.94995 21.919 8.51535 22.9682 7.74177 23.7418C6.96818 24.5154 5.91897 24.95 4.82495 24.95C3.73093 24.95 2.68172 24.5154 1.90814 23.7418C1.13455 22.9682 0.699951 21.919 0.699951 20.825ZM0.699951 4.32495C0.699951 3.23093 1.13455 2.18172 1.90814 1.40814C2.68172 0.634548 3.73093 0.199951 4.82495 0.199951C5.91897 0.199951 6.96818 0.634548 7.74177 1.40814C8.51535 2.18172 8.94995 3.23093 8.94995 4.32495C8.94995 5.41897 8.51535 6.46818 7.74177 7.24177C6.96818 8.01535 5.91897 8.44995 4.82495 8.44995C3.73093 8.44995 2.68172 8.01535 1.90814 7.24177C1.13455 6.46818 0.699951 5.41897 0.699951 4.32495Z" fill="#1B7A6D"/>
</svg>
