<svg width="56" height="56" viewBox="0 0 56 56" fill="none" xmlns="http://www.w3.org/2000/svg">
<path d="M28 0.5C31.6114 0.5 35.1873 1.21131 38.5238 2.59331C41.8602 3.97532 44.8918 6.00095 47.4454 8.55456C49.999 11.1082 52.0247 14.1398 53.4067 17.4762C54.7887 20.8127 55.5 24.3886 55.5 28C55.5 35.2935 52.6027 42.2882 47.4454 47.4454C42.2882 52.6027 35.2935 55.5 28 55.5C24.3886 55.5 20.8127 54.7887 17.4762 53.4067C14.1398 52.0247 11.1082 49.999 8.55456 47.4454C3.39731 42.2882 0.5 35.2935 0.5 28C0.5 20.7065 3.39731 13.7118 8.55456 8.55456C13.7118 3.39731 20.7065 0.5 28 0.5ZM17 16.2025V25.3875L36.635 28L17 30.6125V39.7975L44.5 28L17 16.2025Z" fill="#1B7A6D"/>
</svg>
