<svg width="16" height="16" viewBox="0 0 16 16" fill="none" xmlns="http://www.w3.org/2000/svg">
<path d="M8 8C9.1 8 10.0417 7.60833 10.825 6.825C11.6083 6.04167 12 5.1 12 4C12 2.9 11.6083 1.95833 10.825 1.175C10.0417 0.391667 9.1 0 8 0C6.9 0 5.95833 0.391667 5.175 1.175C4.39167 1.95833 4 2.9 4 4C4 5.1 4.39167 6.04167 5.175 6.825C5.95833 7.60833 6.9 8 8 8ZM16 16V13.2C16 12.6333 15.854 12.1127 15.562 11.638C15.27 11.1633 14.8827 10.8007 14.4 10.55C13.3667 10.0333 12.3167 9.646 11.25 9.388C10.1833 9.13 9.1 9.00067 8 9C6.9 8.99933 5.81667 9.12867 4.75 9.388C3.68333 9.64733 2.63333 10.0347 1.6 10.55C1.11667 10.8 0.729 11.1627 0.437 11.638C0.145 12.1133 -0.000667572 12.634 0 13.2V16H16Z" fill="white"/>
</svg>
